<svg width="221" height="61" fill="none" xmlns="http://www.w3.org/2000/svg"><path d="M11.5 21.901v17.991m0 0H8v6.615h3.75m-.25-6.615h4v6.615h-3.75m0 0v7.672M23 9.202v10.054m0 0h-3.75L20 38.834h3.125M23 19.256h3.25v19.578h-3.125m0 0v6.35M34.25 9.202v5.291m0 0H30.5v8.731h3.75m0-8.73h4v8.73h-4m0 0v13.229m11-19.843v6.614m0 0h-4v11.641h4m0-11.64H49v11.64h-3.75m0 0v10.319M1 60V1h55v59H1z" stroke="#fff" stroke-width="2"/><path d="M75.14 17.977h-4.85V33h-1.97V17.977h-4.84v-1.782h11.66v1.782zm8.297 15.304c-2.382 0-4.293-.785-5.73-2.355-1.43-1.57-2.144-3.613-2.144-6.13 0-2.702.73-4.858 2.19-6.468 1.462-1.61 3.45-2.414 5.966-2.414 2.32 0 4.187.781 5.601 2.344 1.422 1.562 2.133 3.605 2.133 6.129 0 2.742-.726 4.91-2.18 6.504-1.453 1.593-3.398 2.39-5.835 2.39zm.141-15.586c-1.766 0-3.2.637-4.3 1.91-1.102 1.274-1.653 2.946-1.653 5.016s.535 3.738 1.606 5.004c1.078 1.258 2.48 1.887 4.207 1.887 1.843 0 3.296-.602 4.359-1.805 1.062-1.203 1.594-2.887 1.594-5.05 0-2.22-.516-3.934-1.547-5.145-1.031-1.211-2.453-1.817-4.266-1.817zm13.149 8.953V33h-1.97V16.195h4.618c1.797 0 3.187.438 4.172 1.313.992.875 1.488 2.11 1.488 3.703 0 1.594-.551 2.898-1.652 3.914-1.094 1.016-2.574 1.523-4.442 1.523h-2.214zm0-8.671v6.89h2.062c1.359 0 2.395-.308 3.106-.926.718-.625 1.078-1.503 1.078-2.636 0-2.22-1.313-3.328-3.938-3.328h-2.308zm17.285 14.343V30c.265.234.582.445.949.633.375.187.766.348 1.172.48.414.125.828.223 1.242.293.414.07.797.106 1.148.106 1.211 0 2.114-.223 2.707-.668.602-.453.903-1.102.903-1.946 0-.453-.102-.847-.305-1.183a3.21 3.21 0 00-.82-.914 7.57 7.57 0 00-1.254-.797 66.287 66.287 0 00-1.547-.809 26.31 26.31 0 01-1.641-.902 7.139 7.139 0 01-1.324-1.008 4.306 4.306 0 01-.89-1.242c-.211-.469-.317-1.016-.317-1.64 0-.766.168-1.43.504-1.993a4.3 4.3 0 011.324-1.406 6.009 6.009 0 011.864-.82 8.625 8.625 0 012.144-.27c1.656 0 2.863.2 3.621.598v2.215c-.992-.688-2.265-1.032-3.82-1.032-.43 0-.86.047-1.289.14-.43.087-.813.231-1.149.434a2.544 2.544 0 00-.82.786c-.211.32-.316.71-.316 1.172 0 .43.078.8.234 1.113.164.312.402.598.715.855a7.09 7.09 0 001.137.75c.453.242.972.508 1.558.797.602.297 1.172.61 1.711.938a7.814 7.814 0 011.418 1.09c.406.398.727.84.961 1.324.242.484.363 1.039.363 1.664 0 .828-.164 1.531-.492 2.11a3.94 3.94 0 01-1.312 1.394c-.547.36-1.18.617-1.899.773-.719.164-1.476.246-2.273.246-.266 0-.594-.023-.985-.07-.39-.04-.789-.102-1.195-.188a10.06 10.06 0 01-1.16-.293 3.744 3.744 0 01-.867-.41zm23.472-14.343h-4.851V33h-1.969V17.977h-4.84v-1.782h11.66v1.782zm8.297 15.304c-2.383 0-4.293-.785-5.73-2.355-1.43-1.57-2.145-3.613-2.145-6.13 0-2.702.731-4.858 2.192-6.468 1.461-1.61 3.449-2.414 5.964-2.414 2.321 0 4.188.781 5.602 2.344 1.422 1.562 2.133 3.605 2.133 6.129 0 2.742-.727 4.91-2.18 6.504-1.453 1.593-3.398 2.39-5.836 2.39zm.141-15.586c-1.766 0-3.199.637-4.301 1.91-1.101 1.274-1.652 2.946-1.652 5.016s.535 3.738 1.605 5.004c1.078 1.258 2.481 1.887 4.207 1.887 1.844 0 3.297-.602 4.36-1.805 1.062-1.203 1.593-2.887 1.593-5.05 0-2.22-.515-3.934-1.546-5.145-1.032-1.211-2.454-1.817-4.266-1.817zm22.617 14.602c-1.242.656-2.789.984-4.641.984-2.39 0-4.304-.77-5.742-2.308-1.437-1.54-2.156-3.559-2.156-6.059 0-2.687.809-4.86 2.426-6.516 1.617-1.656 3.668-2.484 6.152-2.484 1.594 0 2.914.23 3.961.691v2.098c-1.203-.672-2.531-1.008-3.984-1.008-1.93 0-3.496.645-4.7 1.934-1.195 1.289-1.793 3.012-1.793 5.168 0 2.047.559 3.68 1.676 4.898 1.125 1.211 2.598 1.817 4.418 1.817 1.688 0 3.149-.375 4.383-1.125v1.91zm15.117.703h-2.742l-6.492-7.688c-.242-.289-.391-.484-.445-.585h-.047V33h-1.969V16.195h1.969v7.899h.047c.109-.172.257-.364.445-.575l6.281-7.324h2.449l-7.207 8.063L183.656 33zm1.442-.68V30c.265.234.582.445.949.633.375.187.765.348 1.172.48.414.125.828.223 1.242.293.414.07.797.106 1.148.106 1.211 0 2.114-.223 2.707-.668.602-.453.903-1.102.903-1.946 0-.453-.102-.847-.305-1.183a3.21 3.21 0 00-.82-.914 7.57 7.57 0 00-1.254-.797 66.287 66.287 0 00-1.547-.809 26.31 26.31 0 01-1.641-.902 7.139 7.139 0 01-1.324-1.008 4.306 4.306 0 01-.89-1.242c-.211-.469-.317-1.016-.317-1.64 0-.766.168-1.43.504-1.993a4.3 4.3 0 011.324-1.406 6.014 6.014 0 011.863-.82 8.633 8.633 0 012.145-.27c1.656 0 2.863.2 3.621.598v2.215c-.992-.688-2.266-1.032-3.82-1.032-.43 0-.86.047-1.289.14-.43.087-.813.231-1.149.434a2.544 2.544 0 00-.82.786c-.211.32-.316.71-.316 1.172 0 .43.078.8.234 1.113.164.312.402.598.715.855a7.09 7.09 0 001.137.75c.453.242.972.508 1.558.797.602.297 1.172.61 1.711.938a7.814 7.814 0 011.418 1.09c.406.398.727.84.961 1.324.242.484.363 1.039.363 1.664 0 .828-.164 1.531-.492 2.11a3.94 3.94 0 01-1.312 1.394c-.547.36-1.18.617-1.899.773-.719.164-1.476.246-2.273.246-.266 0-.594-.023-.985-.07-.39-.04-.789-.102-1.195-.188a10.06 10.06 0 01-1.16-.293 3.725 3.725 0 01-.867-.41zM68.161 48v-1.244h-.027c-.228.447-.54.793-.937 1.039-.392.246-.836.37-1.333.37a2.76 2.76 0 01-.916-.145 2.03 2.03 0 01-.69-.403 1.887 1.887 0 01-.438-.636 2.14 2.14 0 01-.15-.813c0-.633.196-1.137.588-1.51.392-.379.984-.625 1.777-.74l2.126-.307c0-1.344-.522-2.016-1.565-2.016-.816 0-1.573.298-2.27.895v-.957c.146-.105.31-.198.492-.28a4.1 4.1 0 01.588-.219c.205-.064.415-.111.63-.143.218-.037.43-.055.635-.055.78 0 1.367.219 1.764.656.4.438.601 1.09.601 1.955V48h-.875zm-1.805-3.398a5.49 5.49 0 00-.806.171 1.62 1.62 0 00-.554.28 1.005 1.005 0 00-.321.431 1.68 1.68 0 00-.103.63c0 .186.032.36.096.519.068.16.164.298.287.417.128.114.28.203.458.266.182.064.388.096.615.096a1.997 1.997 0 001.524-.67c.192-.21.34-.46.445-.752.11-.291.164-.608.164-.95v-.69l-1.805.252zM75.866 48v-3.26h-3.85V48h-.874v-7h.875v2.98h3.848V41h.875v7h-.875zm7.17 0v-1.244h-.027c-.228.447-.54.793-.937 1.039-.392.246-.836.37-1.333.37a2.76 2.76 0 01-.916-.145 2.03 2.03 0 01-.69-.403 1.887 1.887 0 01-.438-.636 2.14 2.14 0 01-.15-.813c0-.633.196-1.137.588-1.51.392-.379.984-.625 1.777-.74l2.126-.307c0-1.344-.522-2.016-1.565-2.016-.816 0-1.573.298-2.27.895v-.957c.146-.105.31-.198.492-.28a4.1 4.1 0 01.588-.219c.205-.064.415-.111.63-.143.218-.037.43-.055.635-.055.78 0 1.367.219 1.764.656.4.438.601 1.09.601 1.955V48h-.875zm-1.805-3.398a5.49 5.49 0 00-.806.171 1.62 1.62 0 00-.554.28 1.005 1.005 0 00-.321.431 1.68 1.68 0 00-.103.63c0 .186.032.36.096.519.068.16.164.298.287.417.128.114.28.203.458.266.182.064.388.096.615.096a1.997 1.997 0 001.524-.67c.192-.21.34-.46.445-.752.11-.291.164-.608.164-.95v-.69l-1.805.252zM90.084 48v-6.234h-1.839a28.956 28.956 0 01-.335 2.823c-.141.793-.321 1.45-.54 1.969-.214.52-.472.907-.772 1.162-.297.25-.647.376-1.053.376a1.704 1.704 0 01-.5-.075v-.76c.06.028.13.05.213.07.086.013.166.02.24.02.277 0 .523-.135.737-.404.22-.273.408-.677.568-1.21.164-.533.303-1.196.417-1.989.114-.793.207-1.709.28-2.748h3.452v7h-.868zm7.97 0v-5.715a4.72 4.72 0 00-.095.157 2.167 2.167 0 01-.096.15L94.008 48h-.8v-7h.827v5.66c.023-.064.055-.134.096-.212.045-.082.1-.168.164-.26L98.04 41h.834v7h-.82zm7.664-1.935c0 .297-.059.572-.178.828a1.781 1.781 0 01-.533.67 2.774 2.774 0 01-.916.444c-.369.11-.807.164-1.313.164-.214 0-.426-.011-.635-.034a5.665 5.665 0 01-1.135-.212 2.571 2.571 0 01-.431-.171v-.875c.315.173.659.305 1.032.396.379.087.759.13 1.142.13.383 0 .706-.032.971-.095.269-.069.485-.16.649-.274.164-.118.283-.257.356-.417.072-.164.109-.342.109-.533 0-.474-.189-.811-.567-1.012-.374-.2-.907-.3-1.6-.3h-.82v-.76h.758c.643 0 1.122-.1 1.436-.3.314-.205.472-.522.472-.95 0-.347-.142-.627-.424-.841-.283-.219-.704-.328-1.265-.328-.36 0-.72.048-1.08.143a5.36 5.36 0 00-1.032.376v-.834a7.681 7.681 0 011.053-.321 5.04 5.04 0 011.148-.13c.433 0 .804.046 1.114.137.315.091.572.219.773.383.205.16.355.353.451.58.1.224.15.47.15.739 0 .428-.127.79-.382 1.087-.251.291-.607.483-1.067.574v.034c.274.019.52.073.738.164.219.091.404.212.554.363.155.15.271.325.349.526.082.2.123.417.123.65zm6.453.807v4.348h-.875V41h.875v1.34h.027c.26-.488.606-.86 1.039-1.114.438-.26.93-.39 1.477-.39.446 0 .845.082 1.196.246.356.16.654.387.896.684.246.296.433.656.56 1.08.132.424.198.9.198 1.428a5.42 5.42 0 01-.218 1.586 3.669 3.669 0 01-.629 1.224 2.888 2.888 0 01-.998.8c-.388.187-.825.28-1.313.28-.984 0-1.72-.43-2.208-1.292h-.027zm0-1.784c0 .319.052.62.157.902.11.278.26.524.451.738.192.21.422.377.691.5.273.123.574.184.902.184.351 0 .668-.073.95-.219.283-.15.522-.362.718-.635.201-.274.353-.604.458-.992.109-.387.164-.82.164-1.298 0-.41-.05-.78-.15-1.108a2.488 2.488 0 00-.431-.847 1.814 1.814 0 00-.67-.534 2.018 2.018 0 00-.875-.184 2.29 2.29 0 00-.984.205c-.292.132-.54.314-.745.547a2.427 2.427 0 00-.472.82c-.109.31-.164.64-.164.991v.93zM125.774 48v-7h.869v7h-.869zm-1.367-2.14c0 .347-.059.654-.178.923a1.995 1.995 0 01-.478.67 2.142 2.142 0 01-.697.41c-.26.091-.536.137-.827.137h-2.892v-7h.875v2.782h1.941c.347 0 .659.048.937.144.278.09.515.225.711.403.196.178.346.397.451.656.105.256.157.547.157.875zm-.902 0c0-.4-.128-.72-.383-.957-.251-.237-.631-.355-1.142-.355h-1.77v2.686h1.784c.264 0 .49-.032.677-.095.191-.069.349-.162.472-.28.123-.12.214-.263.273-.431.059-.173.089-.363.089-.568zM133.629 48v-3.26h-3.849V48h-.875v-7h.875v2.98h3.849V41h.875v7h-.875zm7.225 0l-3.185-3.398h-.027V48h-.875v-7h.875v3.274h.027l3.09-3.274h1.141l-3.315 3.398 3.5 3.602h-1.231zm6.467 0v-1.244h-.027a2.56 2.56 0 01-.937 1.039c-.392.246-.836.37-1.333.37-.337 0-.642-.049-.916-.145a2.032 2.032 0 01-.69-.403 1.888 1.888 0 01-.438-.636 2.14 2.14 0 01-.15-.813c0-.633.196-1.137.588-1.51.392-.379.984-.625 1.777-.74l2.126-.307c0-1.344-.522-2.016-1.565-2.016-.816 0-1.572.298-2.27.895v-.957c.146-.105.31-.198.493-.28.186-.087.382-.16.587-.219.205-.064.415-.111.629-.143.219-.037.431-.055.636-.055.779 0 1.367.219 1.764.656.401.438.601 1.09.601 1.955V48h-.875zm-1.804-3.398a5.471 5.471 0 00-.807.171 1.627 1.627 0 00-.554.28 1 1 0 00-.321.431 1.688 1.688 0 00-.103.63c0 .186.032.36.096.519.068.16.164.298.287.417.128.114.281.203.458.266.183.064.388.096.615.096a1.997 1.997 0 001.525-.67c.191-.21.339-.46.444-.752a2.67 2.67 0 00.164-.95v-.69l-1.804.252z" fill="#fff"/><path d="M155 44h46" stroke="#fff" stroke-width="2"/></svg>