<svg width="176" height="176" fill="none" xmlns="http://www.w3.org/2000/svg"><path d="M176 129.594c0 1.34-10.209 31.556-10.622 32.587-.619 2.062-2.578 3.507-4.847 3.507-2.268 0-4.228-1.444-4.846-3.507-.413-1.134-10.623-31.247-10.623-32.587l15.469-10.313L176 129.594z" fill="#B5DBFF"/><path d="M176 129.594c0 1.34-10.209 31.556-10.622 32.587-.619 2.062-2.578 3.507-4.847 3.507v-46.407L176 129.594z" fill="#8DC8FF"/><path d="M134.75 25.781v134.75A15.448 15.448 0 01119.281 176H15.469C6.909 176 0 169.09 0 160.531V25.781c0-8.56 6.909-15.468 15.469-15.468H119.28c8.56 0 15.469 6.908 15.469 15.468z" fill="#004A7B"/><path d="M134.75 25.781v134.75A15.448 15.448 0 01119.281 176H67.375V10.312h51.906c8.56 0 15.469 6.91 15.469 15.47z" fill="#00345B"/><path d="M124.438 25.781v134.75c0 2.887-2.269 5.157-5.157 5.157H15.469c-2.888 0-5.156-2.27-5.156-5.157V25.781c0-2.888 2.268-5.156 5.156-5.156H119.28c2.888 0 5.157 2.268 5.157 5.156z" fill="#E1E4FB"/><path d="M124.438 25.781v134.75c0 2.887-2.269 5.157-5.157 5.157H67.375V20.625h51.906c2.888 0 5.157 2.268 5.157 5.156z" fill="#C5C9F7"/><path d="M88 0H46.75a15.448 15.448 0 00-15.469 15.469c0 8.559 6.91 15.469 15.469 15.469H88c8.56 0 15.469-6.91 15.469-15.47C103.469 6.91 96.559 0 88 0z" fill="#17ACE8"/><path d="M32.792 112.614a5.136 5.136 0 003.645 1.511 5.136 5.136 0 003.646-1.511l20.625-20.625a5.155 5.155 0 000-7.291 5.155 5.155 0 00-7.291 0l-16.98 16.98-6.667-6.668a5.155 5.155 0 00-7.29 0 5.155 5.155 0 000 7.292l10.312 10.312zm20.625 13.334l-16.98 16.98-6.667-6.668a5.155 5.155 0 00-7.29 0 5.155 5.155 0 000 7.292l10.312 10.312a5.14 5.14 0 003.645 1.511 5.14 5.14 0 003.646-1.511l20.625-20.625a5.154 5.154 0 000-7.291 5.154 5.154 0 00-7.291 0z" fill="#2185BD"/><path d="M22.48 71.02a5.154 5.154 0 007.29 0l6.668-6.666 6.666 6.667a5.154 5.154 0 007.292 0 5.155 5.155 0 000-7.291l-6.667-6.667 6.667-6.667a5.155 5.155 0 000-7.292 5.155 5.155 0 00-7.291 0l-6.667 6.667-6.668-6.667a5.154 5.154 0 00-7.29 0 5.155 5.155 0 000 7.292l6.666 6.667-6.667 6.667a5.154 5.154 0 000 7.29z" fill="#3CA0FD"/><path d="M108.969 51.906H88a5.153 5.153 0 01-5.156-5.156A5.153 5.153 0 0188 41.594h20.969a5.153 5.153 0 015.156 5.156 5.153 5.153 0 01-5.156 5.156zm0 20.625H77.688a5.153 5.153 0 01-5.157-5.156 5.153 5.153 0 015.156-5.156h31.282a5.153 5.153 0 015.156 5.156 5.153 5.153 0 01-5.156 5.156zm0 20.969H88a5.153 5.153 0 01-5.156-5.156A5.153 5.153 0 0188 83.188h20.969a5.153 5.153 0 015.156 5.156 5.153 5.153 0 01-5.156 5.156zm0 20.625H77.688a5.153 5.153 0 01-5.157-5.156 5.154 5.154 0 015.156-5.157h31.282a5.154 5.154 0 015.156 5.157 5.153 5.153 0 01-5.156 5.156zm0 20.625H88a5.153 5.153 0 01-5.156-5.156A5.153 5.153 0 0188 124.438h20.969a5.153 5.153 0 015.156 5.156 5.153 5.153 0 01-5.156 5.156zm0 20.625H77.688a5.153 5.153 0 01-5.157-5.156 5.154 5.154 0 015.156-5.157h31.282a5.154 5.154 0 015.156 5.157 5.153 5.153 0 01-5.156 5.156z" fill="#8A93E6"/><path d="M103.469 15.469c0 8.559-6.91 15.469-15.469 15.469H67.375V0H88c8.56 0 15.469 6.909 15.469 15.469z" fill="#1689FC"/><path d="M176 26.125v15.469l-10.312 10.312h-10.313l-10.313-10.312V26.125c0-8.56 6.91-15.469 15.469-15.469 8.56 0 15.469 6.91 15.469 15.469z" fill="#004A7B"/><path d="M176 26.125v15.469l-10.312 10.312h-5.157v-41.25c8.56 0 15.469 6.91 15.469 15.469z" fill="#00345B"/><path d="M176 41.594v88h-30.938v-88H176z" fill="#4B81B3"/><path d="M176 41.594v88h-15.469v-88H176z" fill="#2D588B"/></svg>