<svg width="170" height="170" fill="none" xmlns="http://www.w3.org/2000/svg"><g clip-path="url(#clip0)"><path d="M35.195 120.195H15.273a4.98 4.98 0 00-4.98 4.98v36.524a4.98 4.98 0 004.98 4.98h19.922a4.98 4.98 0 004.98-4.98v-36.524a4.98 4.98 0 00-4.98-4.98zm39.843-11.953H55.117a4.98 4.98 0 00-4.98 4.98v48.477a4.98 4.98 0 004.98 4.98h19.921a4.98 4.98 0 004.98-4.98v-48.477a4.98 4.98 0 00-4.98-4.98z" fill="#4BC0FF"/><path d="M114.882 89.98H94.96a4.98 4.98 0 00-4.98 4.98v66.74a4.98 4.98 0 004.98 4.98h19.922a4.98 4.98 0 004.98-4.98V94.961a4.98 4.98 0 00-4.98-4.98zm39.843-33.202h-19.921a4.98 4.98 0 00-4.981 4.98v99.941a4.98 4.98 0 004.981 4.98h19.921a4.98 4.98 0 004.981-4.98V61.758a4.98 4.98 0 00-4.981-4.98z" fill="#0592FD"/><path d="M169.829 34.13l-8.156-30.438A4.98 4.98 0 00155.574.17l-30.437 8.156a4.98 4.98 0 102.577 9.621l19.608-5.254c-11.396 19.805-30.231 39.31-52.987 54.623C65.838 86.493 34.105 97.054 4.98 97.054a4.98 4.98 0 000 9.961c31.084 0 64.793-11.164 94.916-31.434 23.593-15.876 43.259-36.158 55.475-56.925l4.836 18.052a4.984 4.984 0 006.1 3.521 4.98 4.98 0 003.522-6.1z" fill="#3EAAE8"/><path d="M169.829 34.13l-8.156-30.438A4.98 4.98 0 00155.574.17l-30.437 8.156a4.98 4.98 0 102.577 9.621l19.608-5.254c-11.396 19.805-30.231 39.31-52.987 54.623a195.342 195.342 0 01-9.336 5.9v11.486a203.6 203.6 0 0014.897-9.122c23.592-15.876 43.258-36.157 55.474-56.924l4.837 18.051a4.983 4.983 0 006.1 3.522 4.98 4.98 0 003.522-6.1z" fill="#0279BC"/><path d="M165.018 169.999H4.98a4.98 4.98 0 110-9.96h160.038a4.98 4.98 0 110 9.96z" fill="#466288"/><path d="M165.018 160.039H84.999v9.96h80.019a4.98 4.98 0 100-9.96z" fill="#354A67"/></g><defs><clipPath id="clip0"><path fill="#fff" d="M0 0h170v170H0z"/></clipPath></defs></svg>