<svg width="170" height="170" fill="none" xmlns="http://www.w3.org/2000/svg"><g clip-path="url(#clip0)"><path d="M4.007 165.993c-5.343-5.343-5.343-14.006 0-19.35l135.38-135.38c5.343-5.342 14.006-5.342 19.349 0 5.344 5.344 5.344 14.007 0 19.35l-135.38 135.38c-5.342 5.343-14.005 5.343-19.349 0z" fill="#82B0DB"/><path d="M48.511 121.489c-5.343-5.343-5.343-14.006 0-19.349L4.007 146.643c-5.343 5.343-5.343 14.007 0 19.35 5.343 5.343 14.006 5.343 19.35 0l44.504-44.504c-5.344 5.343-14.007 5.343-19.35 0z" fill="#6A9BC8"/><path d="M154.951 132.561c5.671 5.671 15.406 1.432 15.039-6.58-1.397-30.474-14.687-61.842-39.408-86.563C105.861 14.697 74.494 1.407 44.019.01c-8.012-.367-12.25 9.367-6.58 15.039L154.951 132.56z" fill="#C1F1FF"/><path d="M130.582 39.418c-10.974-10.975-23.261-19.691-36.196-26.12L65.038 42.647l62.316 62.316 29.348-29.349c-6.429-12.935-15.145-25.222-26.12-36.196z" fill="#A4E6FF"/><path d="M102.427 92.5L77.501 67.574a8.813 8.813 0 010-12.464l34.273-34.273a8.813 8.813 0 0112.463 0l24.927 24.926a8.814 8.814 0 010 12.463L114.89 92.5a8.813 8.813 0 01-12.463 0z" fill="#E7FAFF"/><path d="M76.578 116.299L53.701 93.421c-4.008-4.007-4.008-10.504 0-14.512 4.007-4.007 10.505-4.007 14.512 0l22.877 22.878c4.008 4.007 4.008 10.505 0 14.512-4.007 4.007-10.504 4.007-14.512 0zm13.386-48.726L124.237 33.3a8.814 8.814 0 0112.464 0l-12.464-12.463a8.813 8.813 0 00-12.463 0L77.5 55.11a8.813 8.813 0 000 12.463l12.463 12.463a8.813 8.813 0 010-12.463z" fill="#C1F1FF"/><path d="M98.815 74.85a2.483 2.483 0 01-1.76-.73l-2.903-2.901a2.49 2.49 0 113.521-3.522l2.903 2.902a2.491 2.491 0 01-1.76 4.251zm30.209-30.209a2.48 2.48 0 01-1.761-.73l-2.903-2.902a2.49 2.49 0 013.522-3.521l2.902 2.902a2.49 2.49 0 01-1.76 4.251zM110.365 63.66c-.228 0-.456-.008-.685-.024a2.49 2.49 0 01.341-4.97 4.984 4.984 0 003.866-1.444 4.982 4.982 0 001.444-3.865 2.49 2.49 0 014.969-.34 9.963 9.963 0 01-2.891 7.726 9.962 9.962 0 01-7.044 2.916z" fill="#3B4456"/></g><defs><clipPath id="clip0"><path fill="#fff" d="M0 0h170v170H0z"/></clipPath></defs></svg>