<svg width="52" height="53" fill="none" xmlns="http://www.w3.org/2000/svg"><g clip-path="url(#clip0)"><path d="M19.084 10.697a1.647 1.647 0 00-2.322 0 1.63 1.63 0 000 2.313l13.502 13.453-13.502 13.453a1.63 1.63 0 000 2.313c.642.638 1.68.638 2.322 0L33.664 27.7c.342-.341.487-.791.464-1.238a1.615 1.615 0 00-.465-1.238L19.084 10.697zM45.5.437h-39a6.5 6.5 0 00-6.5 6.5v39a6.5 6.5 0 006.5 6.5h39a6.5 6.5 0 006.5-6.5v-39a6.5 6.5 0 00-6.5-6.5zm3.25 45.5a3.25 3.25 0 01-3.25 3.25h-39a3.25 3.25 0 01-3.25-3.25v-39a3.25 3.25 0 013.25-3.25h39a3.25 3.25 0 013.25 3.25v39z" fill="#fff"/></g><defs><clipPath id="clip0"><path fill="#fff" transform="translate(0 .437)" d="M0 0h52v52H0z"/></clipPath></defs></svg>