<svg width="52" height="52" fill="none" xmlns="http://www.w3.org/2000/svg"><path d="M7.617 52h16.961V33.516h-6.094v-6.094h6.094v-7.617c0-4.2 3.417-7.617 7.617-7.617h7.617v6.093H33.72a3.05 3.05 0 00-3.047 3.047v6.094h8.866l-1.016 6.094h-7.85V52h13.71C48.584 52 52 48.583 52 44.383V7.617C52 3.417 48.583 0 44.383 0H7.617C3.417 0 0 3.417 0 7.617v36.766C0 48.583 3.417 52 7.617 52zM3.047 7.617c0-2.52 2.05-4.57 4.57-4.57h36.766c2.52 0 4.57 2.05 4.57 4.57v36.766c0 2.52-2.05 4.57-4.57 4.57H33.719v-12.39h7.384l2.031-12.188H33.72v-3.047h9.14V9.141H32.195c-5.88 0-10.664 4.783-10.664 10.664v4.57h-6.093v12.188h6.093v12.39H7.617c-2.52 0-4.57-2.05-4.57-4.57V7.617z" fill="#fff"/></svg>