<svg width="54" height="54" fill="none" xmlns="http://www.w3.org/2000/svg"><g clip-path="url(#clip0)" fill="#fff"><path d="M31.1 52.418H3.956a2.376 2.376 0 01-2.373-2.373V3.955a2.376 2.376 0 012.373-2.373h8.123a.79.79 0 100-1.582H3.955A3.96 3.96 0 000 3.955v46.09A3.96 3.96 0 003.955 54h27.146a.791.791 0 000-1.582z"/><path d="M13.08 18.932a1.848 1.848 0 00-1.845 1.845V42.74c0 1.018.828 1.846 1.846 1.846h4.43a1.848 1.848 0 001.845-1.846V20.777a1.848 1.848 0 00-1.846-1.845h-4.43zm4.694 1.845V42.74a.264.264 0 01-.264.264h-4.43a.264.264 0 01-.263-.264V20.777c0-.145.118-.263.264-.263h4.43c.145 0 .263.118.263.263zm16.87 7.594V42.74c0 1.018.828 1.846 1.846 1.846h4.43a1.848 1.848 0 001.845-1.846V24.903a5.978 5.978 0 00-5.972-5.971 6.06 6.06 0 00-4.024 1.527l-1.632 1.447v-1.13a1.848 1.848 0 00-1.846-1.845h-4.43a1.848 1.848 0 00-1.845 1.846v12.738a.79.79 0 101.582 0V20.777c0-.145.118-.263.263-.263h4.43c.145 0 .264.118.264.263v1.536c0 .558.316 1.047.825 1.276a1.383 1.383 0 001.502-.23l1.936-1.716a4.48 4.48 0 012.975-1.13c2.42 0 4.39 1.97 4.39 4.39V42.74a.264.264 0 01-.264.264h-4.43a.264.264 0 01-.263-.264V28.371a3.303 3.303 0 00-1.939-3.029 3.302 3.302 0 00-3.562.492 3.332 3.332 0 00-1.17 2.537V42.74a.264.264 0 01-.264.264h-4.43a.264.264 0 01-.263-.264v-5.583a.791.791 0 00-1.582 0v5.583c0 1.018.828 1.846 1.845 1.846h4.43a1.848 1.848 0 001.846-1.846V28.371c0-.514.224-1 .615-1.334a1.714 1.714 0 011.873-.258c.638.294 1.019.89 1.019 1.592zM15.295 9.415a4.012 4.012 0 00-4.007 4.008 4.012 4.012 0 004.007 4.008 4.012 4.012 0 004.008-4.008 4.012 4.012 0 00-4.008-4.008zm0 6.434a2.428 2.428 0 01-2.425-2.426 2.428 2.428 0 012.425-2.426 2.429 2.429 0 012.426 2.426 2.429 2.429 0 01-2.426 2.426z"/><path d="M50.045 0H15.946a.791.791 0 100 1.582h34.099a2.376 2.376 0 012.373 2.373v46.09a2.376 2.376 0 01-2.373 2.373H34.742a.791.791 0 000 1.582h15.303A3.96 3.96 0 0054 50.045V3.955A3.96 3.96 0 0050.045 0z"/></g><defs><clipPath id="clip0"><path fill="#fff" d="M0 0h54v54H0z"/></clipPath></defs></svg>