<svg width="52" height="52" fill="none" xmlns="http://www.w3.org/2000/svg"><g clip-path="url(#clip0)"><path d="M51.197 5.165c-.635-.776-1.587-1.204-2.68-1.204-.593 0-1.222.125-1.869.372L2.631 21.136c-2.336.891-2.65 2.229-2.63 2.947.02.718.41 2.036 2.793 2.794l.043.013 9.13 2.613 4.938 14.12c.673 1.924 2.184 3.12 3.944 3.12 1.11 0 2.2-.465 3.156-1.344l5.648-5.2 8.19 6.596c.002 0 .003 0 .004.002l.078.062.021.017c.91.706 1.905 1.08 2.875 1.08 1.898 0 3.408-1.404 3.848-3.577L51.88 8.767c.29-1.43.047-2.708-.684-3.602zM15.021 29.006l17.615-8.999-10.968 11.655a1.52 1.52 0 00-.37.679l-2.115 8.567-4.162-11.902zm6.92 14.151a2.86 2.86 0 01-.22.182l1.962-7.947 3.57 2.874-5.312 4.891zM48.895 8.162l-7.212 35.613c-.07.34-.291 1.133-.862 1.133-.281 0-.635-.153-.997-.432l-9.282-7.474a.017.017 0 00-.005-.003l-5.522-4.447 15.861-16.854a1.523 1.523 0 00-1.802-2.4L12.986 26.624 3.73 23.977 47.735 7.18c.371-.142.631-.172.783-.172.093 0 .259.01.32.087.081.098.184.435.057 1.067z" fill="#fff"/></g><defs><clipPath id="clip0"><path fill="#fff" d="M0 0h52v52H0z"/></clipPath></defs></svg>