<svg width="54" height="54" fill="none" xmlns="http://www.w3.org/2000/svg"><g clip-path="url(#clip0)" fill="#fff"><path d="M35.312 24.573l-11.93-6.527a2.172 2.172 0 00-2.17.037 2.172 2.172 0 00-1.073 1.885v12.943a2.17 2.17 0 001.067 1.88 2.173 2.173 0 002.162.05l11.93-6.415a2.19 2.19 0 00.014-3.853zm-12.009 6.71v-9.674l8.916 4.88-8.916 4.794z"/><path d="M53.603 16.192l-.003-.024c-.046-.435-.5-4.301-2.38-6.268-2.173-2.312-4.636-2.593-5.82-2.728a14.265 14.265 0 01-.268-.032l-.095-.01c-7.138-.52-17.92-.59-18.028-.59h-.019c-.107 0-10.889.07-18.092.59l-.095.01-.253.03c-1.17.135-3.607.417-5.786 2.813C.974 11.93.456 15.712.404 16.137l-.007.055C.381 16.373 0 20.68 0 25.002v4.04c0 4.323.381 8.628.397 8.81l.003.027c.046.428.5 4.223 2.371 6.19 2.043 2.235 4.626 2.531 6.015 2.69.22.026.409.047.538.07l.124.017c4.122.392 17.046.585 17.594.593h.033c.108 0 10.889-.071 18.027-.59l.095-.01c.09-.012.191-.023.303-.034 1.164-.124 3.587-.38 5.736-2.745 1.79-1.945 2.308-5.729 2.36-6.154l.007-.055c.016-.18.397-4.486.397-8.809v-4.04c0-4.323-.381-8.628-.397-8.81zm-2.768 12.85c0 4.001-.349 8.121-.382 8.5-.134 1.041-.68 3.435-1.552 4.383-1.345 1.48-2.727 1.626-3.735 1.733-.122.013-.235.025-.337.038-6.905.5-17.28.576-17.757.579-.536-.008-13.27-.203-17.267-.574a14.025 14.025 0 00-.659-.086c-1.183-.135-2.802-.32-4.047-1.69l-.03-.031c-.856-.893-1.386-3.131-1.521-4.34-.025-.286-.384-4.455-.384-8.512v-4.04c0-3.997.349-8.113.383-8.499.16-1.227.716-3.476 1.552-4.384 1.386-1.525 2.847-1.694 3.814-1.805.092-.011.178-.02.258-.031 7.005-.502 17.454-.577 17.829-.58.375.003 10.82.078 17.763.58l.279.033c.994.113 2.496.284 3.875 1.755l.013.014c.857.893 1.387 3.17 1.522 4.403.024.27.383 4.448.383 8.513v4.041z"/></g><defs><clipPath id="clip0"><path fill="#fff" d="M0 0h54v54H0z"/></clipPath></defs></svg>